# Blender v2.82 (sub 7) OBJ File: ''
# www.blender.org
mtllib tree.mtl
o Cone
v 0.000000 -0.811568 -0.326792
v 0.063754 -0.811568 -0.320513
v 0.125058 -0.811568 -0.301917
v 0.181556 -0.811568 -0.271718
v 0.231077 -0.811568 -0.231077
v 0.271718 -0.811568 -0.181556
v 0.301917 -0.811568 -0.125058
v 0.320513 -0.811568 -0.063754
v 0.326792 -0.811568 -0.000000
v 0.320513 -0.811568 0.063754
v 0.301917 -0.811568 0.125058
v 0.271718 -0.811568 0.181556
v 0.231077 -0.811568 0.231077
v 0.181556 -0.811568 0.271718
v 0.125058 -0.811568 0.301917
v 0.063754 -0.811568 0.320513
v -0.000000 -0.811568 0.326792
v -0.063754 -0.811568 0.320513
v -0.125058 -0.811568 0.301917
v -0.181556 -0.811568 0.271718
v -0.231077 -0.811568 0.231077
v -0.271718 -0.811568 0.181556
v -0.301917 -0.811568 0.125058
v -0.320513 -0.811568 0.063754
v -0.326792 -0.811568 -0.000000
v -0.320513 -0.811568 -0.063754
v -0.301917 -0.811568 -0.125058
v -0.271718 -0.811568 -0.181556
v -0.231077 -0.811568 -0.231077
v -0.181556 -0.811568 -0.271718
v -0.125058 -0.811568 -0.301917
v -0.063754 -0.811568 -0.320513
v 0.000000 0.137451 -1.000000
v 0.195090 0.137451 -0.980785
v 0.382683 0.137451 -0.923880
v 0.555570 0.137451 -0.831470
v 0.707107 0.137451 -0.707107
v 0.831470 0.137451 -0.555570
v 0.923880 0.137451 -0.382683
v 0.980785 0.137451 -0.195090
v 1.000000 0.137451 -0.000000
v 0.980785 0.137451 0.195090
v 0.923880 0.137451 0.382683
v 0.831470 0.137451 0.555570
v 0.707107 0.137451 0.707107
v 0.555570 0.137451 0.831470
v 0.382683 0.137451 0.923880
v 0.195090 0.137451 0.980785
v -0.000000 0.137451 1.000000
v -0.195091 0.137451 0.980785
v -0.382684 0.137451 0.923879
v -0.555571 0.137451 0.831469
v -0.707107 0.137451 0.707106
v -0.831470 0.137451 0.555570
v -0.923880 0.137451 0.382683
v 0.000000 2.137451 0.000000
v -0.980785 0.137451 0.195089
v -1.000000 0.137451 -0.000001
v -0.980785 0.137451 -0.195091
v -0.923879 0.137451 -0.382684
v -0.831469 0.137451 -0.555571
v -0.707106 0.137451 -0.707108
v -0.555569 0.137451 -0.831470
v -0.382682 0.137451 -0.923880
v -0.195089 0.137451 -0.980786
v -0.301917 0.137450 -0.125058
v -0.271718 0.137450 -0.181556
v 0.125058 0.137450 -0.301917
v 0.063754 0.137450 -0.320513
v -0.320513 0.137450 -0.063754
v 0.231077 0.137450 -0.231077
v 0.181556 0.137450 0.271718
v 0.125058 0.137450 0.301917
v 0.271718 0.137450 -0.181556
v 0.063754 0.137450 0.320513
v -0.125058 0.137450 0.301917
v -0.326792 0.137450 -0.000000
v -0.125058 0.137450 -0.301917
v -0.181556 0.137450 0.271718
v 0.320513 0.137450 0.063754
v 0.231077 0.137450 0.231077
v 0.301917 0.137450 0.125058
v 0.326792 0.137450 -0.000000
v -0.231077 0.137450 -0.231077
v -0.181556 0.137450 -0.271718
v -0.000000 0.137450 0.326792
v 0.000000 0.137450 -0.326792
v 0.320513 0.137450 -0.063754
v 0.181556 0.137450 -0.271718
v 0.301917 0.137450 -0.125058
v -0.301917 0.137450 0.125058
v -0.271718 0.137450 0.181556
v -0.320513 0.137450 0.063754
v -0.231077 0.137450 0.231077
v -0.063754 0.137450 0.320513
v 0.271718 0.137450 0.181556
v -0.063754 0.137450 -0.320513
vt 0.772855 0.089734
vt 0.769794 0.309356
vt 0.752656 0.309392
vt 0.760739 0.084802
vt 0.735463 0.309083
vt 0.748325 0.087282
vt 0.718200 0.308373
vt 0.736049 0.087236
vt 0.701178 0.305939
vt 0.723902 0.084784
vt 0.684198 0.303035
vt 0.711700 0.079865
vt 0.667250 0.299526
vt 0.698360 0.072587
vt 0.650361 0.295249
vt 0.685335 0.061618
vt 0.633332 0.290367
vt 0.670884 0.044637
vt 0.366737 0.044611
vt 0.405658 0.291621
vt 0.388920 0.296757
vt 0.352773 0.061154
vt 0.372063 0.300853
vt 0.340502 0.073834
vt 0.355120 0.304129
vt 0.328425 0.082529
vt 0.338123 0.306759
vt 0.316328 0.088106
vt 0.321095 0.308878
vt 0.303968 0.091013
vt 0.303826 0.309235
vt 0.292883 0.093882
vt 0.286649 0.309153
vt 0.281659 0.094467
vt 0.269543 0.308673
vt 0.270157 0.093000
vt 0.252492 0.307818
vt 0.258592 0.089066
vt 0.235500 0.306574
vt 0.246522 0.090912
vt 0.218354 0.306146
vt 0.234556 0.090322
vt 0.201129 0.305143
vt 0.222505 0.087533
vt 0.183817 0.303461
vt 0.210626 0.082108
vt 0.166888 0.300029
vt 0.197295 0.074112
vt 0.149985 0.295822
vt 0.184287 0.062218
vt 0.133276 0.290645
vt 0.169794 0.044398
vt 0.873610 0.043080
vt 0.907599 0.295968
vt 0.890378 0.300379
vt 0.859028 0.059942
vt 0.872890 0.303463
vt 0.844430 0.071289
vt 0.855463 0.305457
vt 0.832055 0.080364
vt 0.838122 0.306603
vt 0.819378 0.086209
vt 0.820866 0.307065
vt 0.808024 0.090519
vt 0.803887 0.308236
vt 0.796517 0.092397
vt 0.786866 0.308982
vt 0.784919 0.092000
vt 0.766672 0.454916
vt 0.763756 0.764887
vt 0.745257 0.454783
vt 0.723539 0.454907
vt 0.701086 0.455272
vt 0.677299 0.455941
vt 0.651264 0.456683
vt 0.621917 0.457287
vt 0.587516 0.457266
vt 0.545141 0.455347
vt 0.493018 0.458360
vt 0.267722 0.766302
vt 0.449582 0.459830
vt 0.415031 0.459331
vt 0.385566 0.458278
vt 0.359426 0.457131
vt 0.335538 0.456081
vt 0.312984 0.455348
vt 0.291161 0.454861
vt 0.269636 0.454635
vt 0.248008 0.454672
vt 0.225865 0.454968
vt 0.202852 0.455371
vt 0.178558 0.455999
vt 0.152257 0.456770
vt 0.122814 0.457646
vt 0.088299 0.457917
vt 0.044917 0.456139
vt 0.989920 0.460139
vt 0.947707 0.460797
vt 0.913406 0.460100
vt 0.883922 0.458982
vt 0.857530 0.457848
vt 0.833154 0.456873
vt 0.810188 0.455970
vt 0.788180 0.455312
vn 0.0980 0.0000 -0.9952
vn 0.2903 0.0000 -0.9569
vn 0.4714 0.0000 -0.8819
vn 0.6344 0.0000 -0.7730
vn 0.7730 0.0000 -0.6344
vn 0.8819 0.0000 -0.4714
vn 0.9569 0.0000 -0.2903
vn 0.9952 0.0000 -0.0980
vn 0.9952 0.0000 0.0980
vn 0.9569 0.0000 0.2903
vn 0.8819 0.0000 0.4714
vn 0.7730 0.0000 0.6344
vn 0.6344 0.0000 0.7730
vn 0.4714 0.0000 0.8819
vn 0.2903 0.0000 0.9569
vn 0.0980 0.0000 0.9952
vn -0.0980 0.0000 0.9952
vn -0.2903 0.0000 0.9569
vn -0.4714 0.0000 0.8819
vn -0.6344 0.0000 0.7730
vn -0.7730 0.0000 0.6344
vn -0.8819 0.0000 0.4714
vn -0.9569 0.0000 0.2903
vn -0.9952 0.0000 0.0980
vn -0.9952 0.0000 -0.0980
vn -0.9569 0.0000 -0.2903
vn -0.8819 0.0000 -0.4714
vn -0.7730 0.0000 -0.6344
vn -0.6344 0.0000 -0.7730
vn -0.4714 0.0000 -0.8819
vn -0.2903 0.0000 -0.9569
vn -0.0980 0.0000 -0.9952
vn 0.0878 0.4455 -0.8910
vn 0.2599 0.4455 -0.8567
vn 0.4220 0.4455 -0.7896
vn 0.5680 0.4455 -0.6921
vn 0.6921 0.4455 -0.5680
vn 0.7896 0.4455 -0.4220
vn 0.8567 0.4455 -0.2599
vn 0.8910 0.4455 -0.0878
vn 0.8910 0.4455 0.0878
vn 0.8567 0.4455 0.2599
vn 0.7896 0.4455 0.4220
vn 0.6921 0.4455 0.5680
vn 0.5680 0.4455 0.6921
vn 0.4220 0.4455 0.7896
vn 0.2599 0.4455 0.8567
vn 0.0878 0.4455 0.8910
vn -0.0878 0.4455 0.8910
vn -0.2599 0.4455 0.8567
vn -0.4220 0.4455 0.7896
vn -0.5680 0.4455 0.6921
vn -0.6921 0.4455 0.5680
vn -0.7896 0.4455 0.4220
vn -0.8567 0.4455 0.2599
vn -0.8910 0.4455 0.0878
vn -0.8910 0.4455 -0.0878
vn -0.8567 0.4455 -0.2599
vn -0.7896 0.4455 -0.4220
vn -0.6921 0.4455 -0.5680
vn -0.5680 0.4455 -0.6921
vn -0.4220 0.4455 -0.7896
vn -0.2599 0.4455 -0.8567
vn -0.0878 0.4455 -0.8910
vn 0.0000 -1.0000 -0.0000
usemtl Material.001
s off
f 1/1/1 87/2/1 69/3/1 2/4/1
f 2/4/2 69/3/2 68/5/2 3/6/2
f 3/6/3 68/5/3 89/7/3 4/8/3
f 4/8/4 89/7/4 71/9/4 5/10/4
f 5/10/5 71/9/5 74/11/5 6/12/5
f 6/12/6 74/11/6 90/13/6 7/14/6
f 7/14/7 90/13/7 88/15/7 8/16/7
f 8/16/8 88/15/8 83/17/8 9/18/8
f 9/19/9 83/20/9 80/21/9 10/22/9
f 10/22/10 80/21/10 82/23/10 11/24/10
f 11/24/11 82/23/11 96/25/11 12/26/11
f 12/26/12 96/25/12 81/27/12 13/28/12
f 13/28/13 81/27/13 72/29/13 14/30/13
f 14/30/14 72/29/14 73/31/14 15/32/14
f 15/32/15 73/31/15 75/33/15 16/34/15
f 16/34/16 75/33/16 86/35/16 17/36/16
f 17/36/17 86/35/17 95/37/17 18/38/17
f 18/38/18 95/37/18 76/39/18 19/40/18
f 19/40/19 76/39/19 79/41/19 20/42/19
f 20/42/20 79/41/20 94/43/20 21/44/20
f 21/44/21 94/43/21 92/45/21 22/46/21
f 22/46/22 92/45/22 91/47/22 23/48/22
f 23/48/23 91/47/23 93/49/23 24/50/23
f 24/50/24 93/49/24 77/51/24 25/52/24
f 25/53/25 77/54/25 70/55/25 26/56/25
f 26/56/26 70/55/26 66/57/26 27/58/26
f 27/58/27 66/57/27 67/59/27 28/60/27
f 28/60/28 67/59/28 84/61/28 29/62/28
f 29/62/29 84/61/29 85/63/29 30/64/29
f 30/64/30 85/63/30 78/65/30 31/66/30
f 31/66/31 78/65/31 97/67/31 32/68/31
f 32/68/32 97/67/32 87/2/32 1/1/32
f 33/69/33 56/70/33 34/71/33
f 34/71/34 56/70/34 35/72/34
f 35/72/35 56/70/35 36/73/35
f 36/73/36 56/70/36 37/74/36
f 37/74/37 56/70/37 38/75/37
f 38/75/38 56/70/38 39/76/38
f 39/76/39 56/70/39 40/77/39
f 40/77/40 56/70/40 41/78/40
f 41/79/41 56/80/41 42/81/41
f 42/81/42 56/80/42 43/82/42
f 43/82/43 56/80/43 44/83/43
f 44/83/44 56/80/44 45/84/44
f 45/84/45 56/80/45 46/85/45
f 46/85/46 56/80/46 47/86/46
f 47/86/47 56/80/47 48/87/47
f 48/87/48 56/80/48 49/88/48
f 49/88/49 56/80/49 50/89/49
f 50/89/50 56/80/50 51/90/50
f 51/90/51 56/80/51 52/91/51
f 52/91/52 56/80/52 53/92/52
f 53/92/53 56/80/53 54/93/53
f 54/93/54 56/80/54 55/94/54
f 55/94/55 56/80/55 57/95/55
f 57/95/56 56/80/56 58/96/56
f 58/97/57 56/70/57 59/98/57
f 59/98/58 56/70/58 60/99/58
f 60/99/59 56/70/59 61/100/59
f 61/100/60 56/70/60 62/101/60
f 62/101/61 56/70/61 63/102/61
f 63/102/62 56/70/62 64/103/62
f 64/103/63 56/70/63 65/104/63
f 65/104/64 56/70/64 33/69/64
f 33/69/65 34/71/65 35/72/65 36/73/65 37/74/65 38/75/65 39/76/65 40/77/65 41/78/65 83/17/65 88/15/65 90/13/65 74/11/65 71/9/65 89/7/65 68/5/65 69/3/65 87/2/65 97/67/65 78/65/65 85/63/65 84/61/65 67/59/65 66/57/65 70/55/65 77/54/65 58/97/65 59/98/65 60/99/65 61/100/65 62/101/65 63/102/65 64/103/65 65/104/65
f 58/96/65 77/51/65 93/49/65 91/47/65 92/45/65 94/43/65 79/41/65 76/39/65 95/37/65 86/35/65 75/33/65 73/31/65 72/29/65 81/27/65 96/25/65 82/23/65 80/21/65 83/20/65 41/79/65 42/81/65 43/82/65 44/83/65 45/84/65 46/85/65 47/86/65 48/87/65 49/88/65 50/89/65 51/90/65 52/91/65 53/92/65 54/93/65 55/94/65 57/95/65
f 9/19/65 10/22/65 11/24/65 12/26/65 13/28/65 14/30/65 15/32/65 16/34/65 17/36/65 18/38/65 19/40/65 20/42/65 21/44/65 22/46/65 23/48/65 24/50/65 25/52/65
f 1/1/65 2/4/65 3/6/65 4/8/65 5/10/65 6/12/65 7/14/65 8/16/65 9/18/65 25/53/65 26/56/65 27/58/65 28/60/65 29/62/65 30/64/65 31/66/65 32/68/65
